<?xml version="1.0" encoding="utf-8"?>
<!-- Generator: Adobe Illustrator 25.0.1, SVG Export Plug-In . SVG Version: 6.00 Build 0)  -->
<svg version="1.1" id="Layer_1" xmlns="http://www.w3.org/2000/svg" xmlns:xlink="http://www.w3.org/1999/xlink" x="0px" y="0px"
	 viewBox="0 0 500 500" style="enable-background:new 0 0 500 500;" xml:space="preserve">
<style type="text/css">
	.st0{fill:#FFFFFF;}
</style>
<g>
	<rect x="146" y="146" shape-rendering="optimizeSpeed" class="st0" width="208" height="208"/>
	<rect x="159.52" y="159.52" shape-rendering="optimizeSpeed" width="6.24" height="6.24"/>
	<rect x="165.76" y="159.52" shape-rendering="optimizeSpeed" width="6.24" height="6.24"/>
	<rect x="172" y="159.52" shape-rendering="optimizeSpeed" width="6.24" height="6.24"/>
	<rect x="178.24" y="159.52" shape-rendering="optimizeSpeed" width="6.24" height="6.24"/>
	<rect x="184.48" y="159.52" shape-rendering="optimizeSpeed" width="6.24" height="6.24"/>
	<rect x="190.72" y="159.52" shape-rendering="optimizeSpeed" width="6.24" height="6.24"/>
	<rect x="196.96" y="159.52" shape-rendering="optimizeSpeed" width="6.24" height="6.24"/>
	<rect x="215.68" y="159.52" shape-rendering="optimizeSpeed" width="6.24" height="6.24"/>
	<rect x="234.4" y="159.52" shape-rendering="optimizeSpeed" width="6.24" height="6.24"/>
	<rect x="240.64" y="159.52" shape-rendering="optimizeSpeed" width="6.24" height="6.24"/>
	<rect x="246.88" y="159.52" shape-rendering="optimizeSpeed" width="6.24" height="6.24"/>
	<rect x="253.12" y="159.52" shape-rendering="optimizeSpeed" width="6.24" height="6.24"/>
	<rect x="265.6" y="159.52" shape-rendering="optimizeSpeed" width="6.24" height="6.24"/>
	<rect x="271.84" y="159.52" shape-rendering="optimizeSpeed" width="6.24" height="6.24"/>
	<rect x="278.08" y="159.52" shape-rendering="optimizeSpeed" width="6.24" height="6.24"/>
	<rect x="296.8" y="159.52" shape-rendering="optimizeSpeed" width="6.24" height="6.24"/>
	<rect x="303.04" y="159.52" shape-rendering="optimizeSpeed" width="6.24" height="6.24"/>
	<rect x="309.28" y="159.52" shape-rendering="optimizeSpeed" width="6.24" height="6.24"/>
	<rect x="315.52" y="159.52" shape-rendering="optimizeSpeed" width="6.24" height="6.24"/>
	<rect x="321.76" y="159.52" shape-rendering="optimizeSpeed" width="6.24" height="6.24"/>
	<rect x="328" y="159.52" shape-rendering="optimizeSpeed" width="6.24" height="6.24"/>
	<rect x="334.24" y="159.52" shape-rendering="optimizeSpeed" width="6.24" height="6.24"/>
	<rect x="159.52" y="165.76" shape-rendering="optimizeSpeed" width="6.24" height="6.24"/>
	<rect x="196.96" y="165.76" shape-rendering="optimizeSpeed" width="6.24" height="6.24"/>
	<rect x="209.44" y="165.76" shape-rendering="optimizeSpeed" width="6.24" height="6.24"/>
	<rect x="228.16" y="165.76" shape-rendering="optimizeSpeed" width="6.24" height="6.24"/>
	<rect x="234.4" y="165.76" shape-rendering="optimizeSpeed" width="6.24" height="6.24"/>
	<rect x="253.12" y="165.76" shape-rendering="optimizeSpeed" width="6.24" height="6.24"/>
	<rect x="259.36" y="165.76" shape-rendering="optimizeSpeed" width="6.24" height="6.24"/>
	<rect x="271.84" y="165.76" shape-rendering="optimizeSpeed" width="6.24" height="6.24"/>
	<rect x="284.32" y="165.76" shape-rendering="optimizeSpeed" width="6.24" height="6.24"/>
	<rect x="296.8" y="165.76" shape-rendering="optimizeSpeed" width="6.24" height="6.24"/>
	<rect x="334.24" y="165.76" shape-rendering="optimizeSpeed" width="6.24" height="6.24"/>
	<rect x="159.52" y="172" shape-rendering="optimizeSpeed" width="6.24" height="6.24"/>
	<rect x="172" y="172" shape-rendering="optimizeSpeed" width="6.24" height="6.24"/>
	<rect x="178.24" y="172" shape-rendering="optimizeSpeed" width="6.24" height="6.24"/>
	<rect x="184.48" y="172" shape-rendering="optimizeSpeed" width="6.24" height="6.24"/>
	<rect x="196.96" y="172" shape-rendering="optimizeSpeed" width="6.24" height="6.24"/>
	<rect x="209.44" y="172" shape-rendering="optimizeSpeed" width="6.24" height="6.24"/>
	<rect x="215.68" y="172" shape-rendering="optimizeSpeed" width="6.24" height="6.24"/>
	<rect x="221.92" y="172" shape-rendering="optimizeSpeed" width="6.24" height="6.24"/>
	<rect x="228.16" y="172" shape-rendering="optimizeSpeed" width="6.24" height="6.24"/>
	<rect x="234.4" y="172" shape-rendering="optimizeSpeed" width="6.24" height="6.24"/>
	<rect x="246.88" y="172" shape-rendering="optimizeSpeed" width="6.24" height="6.24"/>
	<rect x="253.12" y="172" shape-rendering="optimizeSpeed" width="6.24" height="6.24"/>
	<rect x="265.6" y="172" shape-rendering="optimizeSpeed" width="6.24" height="6.24"/>
	<rect x="278.08" y="172" shape-rendering="optimizeSpeed" width="6.24" height="6.24"/>
	<rect x="296.8" y="172" shape-rendering="optimizeSpeed" width="6.24" height="6.24"/>
	<rect x="309.28" y="172" shape-rendering="optimizeSpeed" width="6.24" height="6.24"/>
	<rect x="315.52" y="172" shape-rendering="optimizeSpeed" width="6.24" height="6.24"/>
	<rect x="321.76" y="172" shape-rendering="optimizeSpeed" width="6.24" height="6.24"/>
	<rect x="334.24" y="172" shape-rendering="optimizeSpeed" width="6.24" height="6.24"/>
	<rect x="159.52" y="178.24" shape-rendering="optimizeSpeed" width="6.24" height="6.24"/>
	<rect x="172" y="178.24" shape-rendering="optimizeSpeed" width="6.24" height="6.24"/>
	<rect x="178.24" y="178.24" shape-rendering="optimizeSpeed" width="6.24" height="6.24"/>
	<rect x="184.48" y="178.24" shape-rendering="optimizeSpeed" width="6.24" height="6.24"/>
	<rect x="196.96" y="178.24" shape-rendering="optimizeSpeed" width="6.24" height="6.24"/>
	<rect x="215.68" y="178.24" shape-rendering="optimizeSpeed" width="6.24" height="6.24"/>
	<rect x="221.92" y="178.24" shape-rendering="optimizeSpeed" width="6.24" height="6.24"/>
	<rect x="228.16" y="178.24" shape-rendering="optimizeSpeed" width="6.24" height="6.24"/>
	<rect x="246.88" y="178.24" shape-rendering="optimizeSpeed" width="6.24" height="6.24"/>
	<rect x="253.12" y="178.24" shape-rendering="optimizeSpeed" width="6.24" height="6.24"/>
	<rect x="259.36" y="178.24" shape-rendering="optimizeSpeed" width="6.24" height="6.24"/>
	<rect x="271.84" y="178.24" shape-rendering="optimizeSpeed" width="6.24" height="6.24"/>
	<rect x="278.08" y="178.24" shape-rendering="optimizeSpeed" width="6.24" height="6.24"/>
	<rect x="296.8" y="178.24" shape-rendering="optimizeSpeed" width="6.24" height="6.24"/>
	<rect x="309.28" y="178.24" shape-rendering="optimizeSpeed" width="6.24" height="6.24"/>
	<rect x="315.52" y="178.24" shape-rendering="optimizeSpeed" width="6.24" height="6.24"/>
	<rect x="321.76" y="178.24" shape-rendering="optimizeSpeed" width="6.24" height="6.24"/>
	<rect x="334.24" y="178.24" shape-rendering="optimizeSpeed" width="6.24" height="6.24"/>
	<rect x="159.52" y="184.48" shape-rendering="optimizeSpeed" width="6.24" height="6.24"/>
	<rect x="172" y="184.48" shape-rendering="optimizeSpeed" width="6.24" height="6.24"/>
	<rect x="178.24" y="184.48" shape-rendering="optimizeSpeed" width="6.24" height="6.24"/>
	<rect x="184.48" y="184.48" shape-rendering="optimizeSpeed" width="6.24" height="6.24"/>
	<rect x="196.96" y="184.48" shape-rendering="optimizeSpeed" width="6.24" height="6.24"/>
	<rect x="209.44" y="184.48" shape-rendering="optimizeSpeed" width="6.24" height="6.24"/>
	<rect x="240.64" y="184.48" shape-rendering="optimizeSpeed" width="6.24" height="6.24"/>
	<rect x="253.12" y="184.48" shape-rendering="optimizeSpeed" width="6.24" height="6.24"/>
	<rect x="259.36" y="184.48" shape-rendering="optimizeSpeed" width="6.24" height="6.24"/>
	<rect x="265.6" y="184.48" shape-rendering="optimizeSpeed" width="6.24" height="6.24"/>
	<rect x="271.84" y="184.48" shape-rendering="optimizeSpeed" width="6.24" height="6.24"/>
	<rect x="296.8" y="184.48" shape-rendering="optimizeSpeed" width="6.24" height="6.24"/>
	<rect x="309.28" y="184.48" shape-rendering="optimizeSpeed" width="6.24" height="6.24"/>
	<rect x="315.52" y="184.48" shape-rendering="optimizeSpeed" width="6.24" height="6.24"/>
	<rect x="321.76" y="184.48" shape-rendering="optimizeSpeed" width="6.24" height="6.24"/>
	<rect x="334.24" y="184.48" shape-rendering="optimizeSpeed" width="6.24" height="6.24"/>
	<rect x="159.52" y="190.72" shape-rendering="optimizeSpeed" width="6.24" height="6.24"/>
	<rect x="196.96" y="190.72" shape-rendering="optimizeSpeed" width="6.24" height="6.24"/>
	<rect x="209.44" y="190.72" shape-rendering="optimizeSpeed" width="6.24" height="6.24"/>
	<rect x="215.68" y="190.72" shape-rendering="optimizeSpeed" width="6.24" height="6.24"/>
	<rect x="228.16" y="190.72" shape-rendering="optimizeSpeed" width="6.24" height="6.24"/>
	<rect x="240.64" y="190.72" shape-rendering="optimizeSpeed" width="6.24" height="6.24"/>
	<rect x="253.12" y="190.72" shape-rendering="optimizeSpeed" width="6.24" height="6.24"/>
	<rect x="259.36" y="190.72" shape-rendering="optimizeSpeed" width="6.24" height="6.24"/>
	<rect x="271.84" y="190.72" shape-rendering="optimizeSpeed" width="6.24" height="6.24"/>
	<rect x="278.08" y="190.72" shape-rendering="optimizeSpeed" width="6.24" height="6.24"/>
	<rect x="284.32" y="190.72" shape-rendering="optimizeSpeed" width="6.24" height="6.24"/>
	<rect x="296.8" y="190.72" shape-rendering="optimizeSpeed" width="6.24" height="6.24"/>
	<rect x="334.24" y="190.72" shape-rendering="optimizeSpeed" width="6.24" height="6.24"/>
	<rect x="159.52" y="196.96" shape-rendering="optimizeSpeed" width="6.24" height="6.24"/>
	<rect x="165.76" y="196.96" shape-rendering="optimizeSpeed" width="6.24" height="6.24"/>
	<rect x="172" y="196.96" shape-rendering="optimizeSpeed" width="6.24" height="6.24"/>
	<rect x="178.24" y="196.96" shape-rendering="optimizeSpeed" width="6.24" height="6.24"/>
	<rect x="184.48" y="196.96" shape-rendering="optimizeSpeed" width="6.24" height="6.24"/>
	<rect x="190.72" y="196.96" shape-rendering="optimizeSpeed" width="6.24" height="6.24"/>
	<rect x="196.96" y="196.96" shape-rendering="optimizeSpeed" width="6.24" height="6.24"/>
	<rect x="209.44" y="196.96" shape-rendering="optimizeSpeed" width="6.24" height="6.24"/>
	<rect x="221.92" y="196.96" shape-rendering="optimizeSpeed" width="6.24" height="6.24"/>
	<rect x="234.4" y="196.96" shape-rendering="optimizeSpeed" width="6.24" height="6.24"/>
	<rect x="246.88" y="196.96" shape-rendering="optimizeSpeed" width="6.24" height="6.24"/>
	<rect x="259.36" y="196.96" shape-rendering="optimizeSpeed" width="6.24" height="6.24"/>
	<rect x="271.84" y="196.96" shape-rendering="optimizeSpeed" width="6.24" height="6.24"/>
	<rect x="284.32" y="196.96" shape-rendering="optimizeSpeed" width="6.24" height="6.24"/>
	<rect x="296.8" y="196.96" shape-rendering="optimizeSpeed" width="6.24" height="6.24"/>
	<rect x="303.04" y="196.96" shape-rendering="optimizeSpeed" width="6.24" height="6.24"/>
	<rect x="309.28" y="196.96" shape-rendering="optimizeSpeed" width="6.24" height="6.24"/>
	<rect x="315.52" y="196.96" shape-rendering="optimizeSpeed" width="6.24" height="6.24"/>
	<rect x="321.76" y="196.96" shape-rendering="optimizeSpeed" width="6.24" height="6.24"/>
	<rect x="328" y="196.96" shape-rendering="optimizeSpeed" width="6.24" height="6.24"/>
	<rect x="334.24" y="196.96" shape-rendering="optimizeSpeed" width="6.24" height="6.24"/>
	<rect x="209.44" y="203.2" shape-rendering="optimizeSpeed" width="6.24" height="6.24"/>
	<rect x="215.68" y="203.2" shape-rendering="optimizeSpeed" width="6.24" height="6.24"/>
	<rect x="234.4" y="203.2" shape-rendering="optimizeSpeed" width="6.24" height="6.24"/>
	<rect x="253.12" y="203.2" shape-rendering="optimizeSpeed" width="6.24" height="6.24"/>
	<rect x="265.6" y="203.2" shape-rendering="optimizeSpeed" width="6.24" height="6.24"/>
	<rect x="271.84" y="203.2" shape-rendering="optimizeSpeed" width="6.24" height="6.24"/>
	<rect x="278.08" y="203.2" shape-rendering="optimizeSpeed" width="6.24" height="6.24"/>
	<rect x="284.32" y="203.2" shape-rendering="optimizeSpeed" width="6.24" height="6.24"/>
	<rect x="159.52" y="209.44" shape-rendering="optimizeSpeed" width="6.24" height="6.24"/>
	<rect x="165.76" y="209.44" shape-rendering="optimizeSpeed" width="6.24" height="6.24"/>
	<rect x="178.24" y="209.44" shape-rendering="optimizeSpeed" width="6.24" height="6.24"/>
	<rect x="196.96" y="209.44" shape-rendering="optimizeSpeed" width="6.24" height="6.24"/>
	<rect x="203.2" y="209.44" shape-rendering="optimizeSpeed" width="6.24" height="6.24"/>
	<rect x="221.92" y="209.44" shape-rendering="optimizeSpeed" width="6.24" height="6.24"/>
	<rect x="240.64" y="209.44" shape-rendering="optimizeSpeed" width="6.24" height="6.24"/>
	<rect x="246.88" y="209.44" shape-rendering="optimizeSpeed" width="6.24" height="6.24"/>
	<rect x="253.12" y="209.44" shape-rendering="optimizeSpeed" width="6.24" height="6.24"/>
	<rect x="259.36" y="209.44" shape-rendering="optimizeSpeed" width="6.24" height="6.24"/>
	<rect x="271.84" y="209.44" shape-rendering="optimizeSpeed" width="6.24" height="6.24"/>
	<rect x="278.08" y="209.44" shape-rendering="optimizeSpeed" width="6.24" height="6.24"/>
	<rect x="296.8" y="209.44" shape-rendering="optimizeSpeed" width="6.24" height="6.24"/>
	<rect x="303.04" y="209.44" shape-rendering="optimizeSpeed" width="6.24" height="6.24"/>
	<rect x="309.28" y="209.44" shape-rendering="optimizeSpeed" width="6.24" height="6.24"/>
	<rect x="321.76" y="209.44" shape-rendering="optimizeSpeed" width="6.24" height="6.24"/>
	<rect x="328" y="209.44" shape-rendering="optimizeSpeed" width="6.24" height="6.24"/>
	<rect x="159.52" y="215.68" shape-rendering="optimizeSpeed" width="6.24" height="6.24"/>
	<rect x="172" y="215.68" shape-rendering="optimizeSpeed" width="6.24" height="6.24"/>
	<rect x="190.72" y="215.68" shape-rendering="optimizeSpeed" width="6.24" height="6.24"/>
	<rect x="203.2" y="215.68" shape-rendering="optimizeSpeed" width="6.24" height="6.24"/>
	<rect x="221.92" y="215.68" shape-rendering="optimizeSpeed" width="6.24" height="6.24"/>
	<rect x="228.16" y="215.68" shape-rendering="optimizeSpeed" width="6.24" height="6.24"/>
	<rect x="240.64" y="215.68" shape-rendering="optimizeSpeed" width="6.24" height="6.24"/>
	<rect x="259.36" y="215.68" shape-rendering="optimizeSpeed" width="6.24" height="6.24"/>
	<rect x="290.56" y="215.68" shape-rendering="optimizeSpeed" width="6.24" height="6.24"/>
	<rect x="296.8" y="215.68" shape-rendering="optimizeSpeed" width="6.24" height="6.24"/>
	<rect x="315.52" y="215.68" shape-rendering="optimizeSpeed" width="6.24" height="6.24"/>
	<rect x="334.24" y="215.68" shape-rendering="optimizeSpeed" width="6.24" height="6.24"/>
	<rect x="165.76" y="221.92" shape-rendering="optimizeSpeed" width="6.24" height="6.24"/>
	<rect x="172" y="221.92" shape-rendering="optimizeSpeed" width="6.24" height="6.24"/>
	<rect x="178.24" y="221.92" shape-rendering="optimizeSpeed" width="6.24" height="6.24"/>
	<rect x="190.72" y="221.92" shape-rendering="optimizeSpeed" width="6.24" height="6.24"/>
	<rect x="196.96" y="221.92" shape-rendering="optimizeSpeed" width="6.24" height="6.24"/>
	<rect x="215.68" y="221.92" shape-rendering="optimizeSpeed" width="6.24" height="6.24"/>
	<rect x="221.92" y="221.92" shape-rendering="optimizeSpeed" width="6.24" height="6.24"/>
	<rect x="240.64" y="221.92" shape-rendering="optimizeSpeed" width="6.24" height="6.24"/>
	<rect x="246.88" y="221.92" shape-rendering="optimizeSpeed" width="6.24" height="6.24"/>
	<rect x="259.36" y="221.92" shape-rendering="optimizeSpeed" width="6.24" height="6.24"/>
	<rect x="265.6" y="221.92" shape-rendering="optimizeSpeed" width="6.24" height="6.24"/>
	<rect x="278.08" y="221.92" shape-rendering="optimizeSpeed" width="6.24" height="6.24"/>
	<rect x="296.8" y="221.92" shape-rendering="optimizeSpeed" width="6.24" height="6.24"/>
	<rect x="315.52" y="221.92" shape-rendering="optimizeSpeed" width="6.24" height="6.24"/>
	<rect x="321.76" y="221.92" shape-rendering="optimizeSpeed" width="6.24" height="6.24"/>
	<rect x="328" y="221.92" shape-rendering="optimizeSpeed" width="6.24" height="6.24"/>
	<rect x="159.52" y="228.16" shape-rendering="optimizeSpeed" width="6.24" height="6.24"/>
	<rect x="165.76" y="228.16" shape-rendering="optimizeSpeed" width="6.24" height="6.24"/>
	<rect x="172" y="228.16" shape-rendering="optimizeSpeed" width="6.24" height="6.24"/>
	<rect x="203.2" y="228.16" shape-rendering="optimizeSpeed" width="6.24" height="6.24"/>
	<rect x="209.44" y="228.16" shape-rendering="optimizeSpeed" width="6.24" height="6.24"/>
	<rect x="240.64" y="228.16" shape-rendering="optimizeSpeed" width="6.24" height="6.24"/>
	<rect x="253.12" y="228.16" shape-rendering="optimizeSpeed" width="6.24" height="6.24"/>
	<rect x="259.36" y="228.16" shape-rendering="optimizeSpeed" width="6.24" height="6.24"/>
	<rect x="271.84" y="228.16" shape-rendering="optimizeSpeed" width="6.24" height="6.24"/>
	<rect x="290.56" y="228.16" shape-rendering="optimizeSpeed" width="6.24" height="6.24"/>
	<rect x="315.52" y="228.16" shape-rendering="optimizeSpeed" width="6.24" height="6.24"/>
	<rect x="321.76" y="228.16" shape-rendering="optimizeSpeed" width="6.24" height="6.24"/>
	<rect x="328" y="228.16" shape-rendering="optimizeSpeed" width="6.24" height="6.24"/>
	<rect x="159.52" y="234.4" shape-rendering="optimizeSpeed" width="6.24" height="6.24"/>
	<rect x="165.76" y="234.4" shape-rendering="optimizeSpeed" width="6.24" height="6.24"/>
	<rect x="172" y="234.4" shape-rendering="optimizeSpeed" width="6.24" height="6.24"/>
	<rect x="178.24" y="234.4" shape-rendering="optimizeSpeed" width="6.24" height="6.24"/>
	<rect x="190.72" y="234.4" shape-rendering="optimizeSpeed" width="6.24" height="6.24"/>
	<rect x="196.96" y="234.4" shape-rendering="optimizeSpeed" width="6.24" height="6.24"/>
	<rect x="203.2" y="234.4" shape-rendering="optimizeSpeed" width="6.24" height="6.24"/>
	<rect x="234.4" y="234.4" shape-rendering="optimizeSpeed" width="6.24" height="6.24"/>
	<rect x="240.64" y="234.4" shape-rendering="optimizeSpeed" width="6.24" height="6.24"/>
	<rect x="265.6" y="234.4" shape-rendering="optimizeSpeed" width="6.24" height="6.24"/>
	<rect x="284.32" y="234.4" shape-rendering="optimizeSpeed" width="6.24" height="6.24"/>
	<rect x="290.56" y="234.4" shape-rendering="optimizeSpeed" width="6.24" height="6.24"/>
	<rect x="296.8" y="234.4" shape-rendering="optimizeSpeed" width="6.24" height="6.24"/>
	<rect x="315.52" y="234.4" shape-rendering="optimizeSpeed" width="6.24" height="6.24"/>
	<rect x="328" y="234.4" shape-rendering="optimizeSpeed" width="6.24" height="6.24"/>
	<rect x="334.24" y="234.4" shape-rendering="optimizeSpeed" width="6.24" height="6.24"/>
	<rect x="159.52" y="240.64" shape-rendering="optimizeSpeed" width="6.24" height="6.24"/>
	<rect x="165.76" y="240.64" shape-rendering="optimizeSpeed" width="6.24" height="6.24"/>
	<rect x="184.48" y="240.64" shape-rendering="optimizeSpeed" width="6.24" height="6.24"/>
	<rect x="203.2" y="240.64" shape-rendering="optimizeSpeed" width="6.24" height="6.24"/>
	<rect x="221.92" y="240.64" shape-rendering="optimizeSpeed" width="6.24" height="6.24"/>
	<rect x="228.16" y="240.64" shape-rendering="optimizeSpeed" width="6.24" height="6.24"/>
	<rect x="234.4" y="240.64" shape-rendering="optimizeSpeed" width="6.24" height="6.24"/>
	<rect x="265.6" y="240.64" shape-rendering="optimizeSpeed" width="6.24" height="6.24"/>
	<rect x="278.08" y="240.64" shape-rendering="optimizeSpeed" width="6.24" height="6.24"/>
	<rect x="284.32" y="240.64" shape-rendering="optimizeSpeed" width="6.24" height="6.24"/>
	<rect x="290.56" y="240.64" shape-rendering="optimizeSpeed" width="6.24" height="6.24"/>
	<rect x="321.76" y="240.64" shape-rendering="optimizeSpeed" width="6.24" height="6.24"/>
	<rect x="178.24" y="246.88" shape-rendering="optimizeSpeed" width="6.24" height="6.24"/>
	<rect x="196.96" y="246.88" shape-rendering="optimizeSpeed" width="6.24" height="6.24"/>
	<rect x="203.2" y="246.88" shape-rendering="optimizeSpeed" width="6.24" height="6.24"/>
	<rect x="209.44" y="246.88" shape-rendering="optimizeSpeed" width="6.24" height="6.24"/>
	<rect x="234.4" y="246.88" shape-rendering="optimizeSpeed" width="6.24" height="6.24"/>
	<rect x="246.88" y="246.88" shape-rendering="optimizeSpeed" width="6.24" height="6.24"/>
	<rect x="259.36" y="246.88" shape-rendering="optimizeSpeed" width="6.24" height="6.24"/>
	<rect x="271.84" y="246.88" shape-rendering="optimizeSpeed" width="6.24" height="6.24"/>
	<rect x="290.56" y="246.88" shape-rendering="optimizeSpeed" width="6.24" height="6.24"/>
	<rect x="309.28" y="246.88" shape-rendering="optimizeSpeed" width="6.24" height="6.24"/>
	<rect x="321.76" y="246.88" shape-rendering="optimizeSpeed" width="6.24" height="6.24"/>
	<rect x="328" y="246.88" shape-rendering="optimizeSpeed" width="6.24" height="6.24"/>
	<rect x="334.24" y="246.88" shape-rendering="optimizeSpeed" width="6.24" height="6.24"/>
	<rect x="159.52" y="253.12" shape-rendering="optimizeSpeed" width="6.24" height="6.24"/>
	<rect x="172" y="253.12" shape-rendering="optimizeSpeed" width="6.24" height="6.24"/>
	<rect x="209.44" y="253.12" shape-rendering="optimizeSpeed" width="6.24" height="6.24"/>
	<rect x="234.4" y="253.12" shape-rendering="optimizeSpeed" width="6.24" height="6.24"/>
	<rect x="240.64" y="253.12" shape-rendering="optimizeSpeed" width="6.24" height="6.24"/>
	<rect x="246.88" y="253.12" shape-rendering="optimizeSpeed" width="6.24" height="6.24"/>
	<rect x="253.12" y="253.12" shape-rendering="optimizeSpeed" width="6.24" height="6.24"/>
	<rect x="259.36" y="253.12" shape-rendering="optimizeSpeed" width="6.24" height="6.24"/>
	<rect x="265.6" y="253.12" shape-rendering="optimizeSpeed" width="6.24" height="6.24"/>
	<rect x="271.84" y="253.12" shape-rendering="optimizeSpeed" width="6.24" height="6.24"/>
	<rect x="284.32" y="253.12" shape-rendering="optimizeSpeed" width="6.24" height="6.24"/>
	<rect x="296.8" y="253.12" shape-rendering="optimizeSpeed" width="6.24" height="6.24"/>
	<rect x="315.52" y="253.12" shape-rendering="optimizeSpeed" width="6.24" height="6.24"/>
	<rect x="328" y="253.12" shape-rendering="optimizeSpeed" width="6.24" height="6.24"/>
	<rect x="165.76" y="259.36" shape-rendering="optimizeSpeed" width="6.24" height="6.24"/>
	<rect x="172" y="259.36" shape-rendering="optimizeSpeed" width="6.24" height="6.24"/>
	<rect x="190.72" y="259.36" shape-rendering="optimizeSpeed" width="6.24" height="6.24"/>
	<rect x="196.96" y="259.36" shape-rendering="optimizeSpeed" width="6.24" height="6.24"/>
	<rect x="203.2" y="259.36" shape-rendering="optimizeSpeed" width="6.24" height="6.24"/>
	<rect x="228.16" y="259.36" shape-rendering="optimizeSpeed" width="6.24" height="6.24"/>
	<rect x="246.88" y="259.36" shape-rendering="optimizeSpeed" width="6.24" height="6.24"/>
	<rect x="253.12" y="259.36" shape-rendering="optimizeSpeed" width="6.24" height="6.24"/>
	<rect x="265.6" y="259.36" shape-rendering="optimizeSpeed" width="6.24" height="6.24"/>
	<rect x="284.32" y="259.36" shape-rendering="optimizeSpeed" width="6.24" height="6.24"/>
	<rect x="290.56" y="259.36" shape-rendering="optimizeSpeed" width="6.24" height="6.24"/>
	<rect x="315.52" y="259.36" shape-rendering="optimizeSpeed" width="6.24" height="6.24"/>
	<rect x="328" y="259.36" shape-rendering="optimizeSpeed" width="6.24" height="6.24"/>
	<rect x="165.76" y="265.6" shape-rendering="optimizeSpeed" width="6.24" height="6.24"/>
	<rect x="172" y="265.6" shape-rendering="optimizeSpeed" width="6.24" height="6.24"/>
	<rect x="190.72" y="265.6" shape-rendering="optimizeSpeed" width="6.24" height="6.24"/>
	<rect x="246.88" y="265.6" shape-rendering="optimizeSpeed" width="6.24" height="6.24"/>
	<rect x="259.36" y="265.6" shape-rendering="optimizeSpeed" width="6.24" height="6.24"/>
	<rect x="271.84" y="265.6" shape-rendering="optimizeSpeed" width="6.24" height="6.24"/>
	<rect x="296.8" y="265.6" shape-rendering="optimizeSpeed" width="6.24" height="6.24"/>
	<rect x="303.04" y="265.6" shape-rendering="optimizeSpeed" width="6.24" height="6.24"/>
	<rect x="334.24" y="265.6" shape-rendering="optimizeSpeed" width="6.24" height="6.24"/>
	<rect x="159.52" y="271.84" shape-rendering="optimizeSpeed" width="6.24" height="6.24"/>
	<rect x="184.48" y="271.84" shape-rendering="optimizeSpeed" width="6.24" height="6.24"/>
	<rect x="190.72" y="271.84" shape-rendering="optimizeSpeed" width="6.24" height="6.24"/>
	<rect x="196.96" y="271.84" shape-rendering="optimizeSpeed" width="6.24" height="6.24"/>
	<rect x="215.68" y="271.84" shape-rendering="optimizeSpeed" width="6.24" height="6.24"/>
	<rect x="221.92" y="271.84" shape-rendering="optimizeSpeed" width="6.24" height="6.24"/>
	<rect x="240.64" y="271.84" shape-rendering="optimizeSpeed" width="6.24" height="6.24"/>
	<rect x="290.56" y="271.84" shape-rendering="optimizeSpeed" width="6.24" height="6.24"/>
	<rect x="296.8" y="271.84" shape-rendering="optimizeSpeed" width="6.24" height="6.24"/>
	<rect x="309.28" y="271.84" shape-rendering="optimizeSpeed" width="6.24" height="6.24"/>
	<rect x="315.52" y="271.84" shape-rendering="optimizeSpeed" width="6.24" height="6.24"/>
	<rect x="328" y="271.84" shape-rendering="optimizeSpeed" width="6.24" height="6.24"/>
	<rect x="334.24" y="271.84" shape-rendering="optimizeSpeed" width="6.24" height="6.24"/>
	<rect x="172" y="278.08" shape-rendering="optimizeSpeed" width="6.24" height="6.24"/>
	<rect x="178.24" y="278.08" shape-rendering="optimizeSpeed" width="6.24" height="6.24"/>
	<rect x="190.72" y="278.08" shape-rendering="optimizeSpeed" width="6.24" height="6.24"/>
	<rect x="203.2" y="278.08" shape-rendering="optimizeSpeed" width="6.24" height="6.24"/>
	<rect x="215.68" y="278.08" shape-rendering="optimizeSpeed" width="6.24" height="6.24"/>
	<rect x="221.92" y="278.08" shape-rendering="optimizeSpeed" width="6.24" height="6.24"/>
	<rect x="228.16" y="278.08" shape-rendering="optimizeSpeed" width="6.24" height="6.24"/>
	<rect x="253.12" y="278.08" shape-rendering="optimizeSpeed" width="6.24" height="6.24"/>
	<rect x="265.6" y="278.08" shape-rendering="optimizeSpeed" width="6.24" height="6.24"/>
	<rect x="271.84" y="278.08" shape-rendering="optimizeSpeed" width="6.24" height="6.24"/>
	<rect x="296.8" y="278.08" shape-rendering="optimizeSpeed" width="6.24" height="6.24"/>
	<rect x="309.28" y="278.08" shape-rendering="optimizeSpeed" width="6.24" height="6.24"/>
	<rect x="328" y="278.08" shape-rendering="optimizeSpeed" width="6.24" height="6.24"/>
	<rect x="334.24" y="278.08" shape-rendering="optimizeSpeed" width="6.24" height="6.24"/>
	<rect x="159.52" y="284.32" shape-rendering="optimizeSpeed" width="6.24" height="6.24"/>
	<rect x="184.48" y="284.32" shape-rendering="optimizeSpeed" width="6.24" height="6.24"/>
	<rect x="196.96" y="284.32" shape-rendering="optimizeSpeed" width="6.24" height="6.24"/>
	<rect x="209.44" y="284.32" shape-rendering="optimizeSpeed" width="6.24" height="6.24"/>
	<rect x="215.68" y="284.32" shape-rendering="optimizeSpeed" width="6.24" height="6.24"/>
	<rect x="221.92" y="284.32" shape-rendering="optimizeSpeed" width="6.24" height="6.24"/>
	<rect x="228.16" y="284.32" shape-rendering="optimizeSpeed" width="6.24" height="6.24"/>
	<rect x="234.4" y="284.32" shape-rendering="optimizeSpeed" width="6.24" height="6.24"/>
	<rect x="240.64" y="284.32" shape-rendering="optimizeSpeed" width="6.24" height="6.24"/>
	<rect x="246.88" y="284.32" shape-rendering="optimizeSpeed" width="6.24" height="6.24"/>
	<rect x="278.08" y="284.32" shape-rendering="optimizeSpeed" width="6.24" height="6.24"/>
	<rect x="284.32" y="284.32" shape-rendering="optimizeSpeed" width="6.24" height="6.24"/>
	<rect x="290.56" y="284.32" shape-rendering="optimizeSpeed" width="6.24" height="6.24"/>
	<rect x="296.8" y="284.32" shape-rendering="optimizeSpeed" width="6.24" height="6.24"/>
	<rect x="303.04" y="284.32" shape-rendering="optimizeSpeed" width="6.24" height="6.24"/>
	<rect x="309.28" y="284.32" shape-rendering="optimizeSpeed" width="6.24" height="6.24"/>
	<rect x="321.76" y="284.32" shape-rendering="optimizeSpeed" width="6.24" height="6.24"/>
	<rect x="209.44" y="290.56" shape-rendering="optimizeSpeed" width="6.24" height="6.24"/>
	<rect x="215.68" y="290.56" shape-rendering="optimizeSpeed" width="6.24" height="6.24"/>
	<rect x="228.16" y="290.56" shape-rendering="optimizeSpeed" width="6.24" height="6.24"/>
	<rect x="234.4" y="290.56" shape-rendering="optimizeSpeed" width="6.24" height="6.24"/>
	<rect x="240.64" y="290.56" shape-rendering="optimizeSpeed" width="6.24" height="6.24"/>
	<rect x="246.88" y="290.56" shape-rendering="optimizeSpeed" width="6.24" height="6.24"/>
	<rect x="259.36" y="290.56" shape-rendering="optimizeSpeed" width="6.24" height="6.24"/>
	<rect x="265.6" y="290.56" shape-rendering="optimizeSpeed" width="6.24" height="6.24"/>
	<rect x="271.84" y="290.56" shape-rendering="optimizeSpeed" width="6.24" height="6.24"/>
	<rect x="278.08" y="290.56" shape-rendering="optimizeSpeed" width="6.24" height="6.24"/>
	<rect x="284.32" y="290.56" shape-rendering="optimizeSpeed" width="6.24" height="6.24"/>
	<rect x="309.28" y="290.56" shape-rendering="optimizeSpeed" width="6.24" height="6.24"/>
	<rect x="321.76" y="290.56" shape-rendering="optimizeSpeed" width="6.24" height="6.24"/>
	<rect x="328" y="290.56" shape-rendering="optimizeSpeed" width="6.24" height="6.24"/>
	<rect x="334.24" y="290.56" shape-rendering="optimizeSpeed" width="6.24" height="6.24"/>
	<rect x="159.52" y="296.8" shape-rendering="optimizeSpeed" width="6.24" height="6.24"/>
	<rect x="165.76" y="296.8" shape-rendering="optimizeSpeed" width="6.24" height="6.24"/>
	<rect x="172" y="296.8" shape-rendering="optimizeSpeed" width="6.24" height="6.24"/>
	<rect x="178.24" y="296.8" shape-rendering="optimizeSpeed" width="6.24" height="6.24"/>
	<rect x="184.48" y="296.8" shape-rendering="optimizeSpeed" width="6.24" height="6.24"/>
	<rect x="190.72" y="296.8" shape-rendering="optimizeSpeed" width="6.24" height="6.24"/>
	<rect x="196.96" y="296.8" shape-rendering="optimizeSpeed" width="6.24" height="6.24"/>
	<rect x="209.44" y="296.8" shape-rendering="optimizeSpeed" width="6.24" height="6.24"/>
	<rect x="221.92" y="296.8" shape-rendering="optimizeSpeed" width="6.24" height="6.24"/>
	<rect x="228.16" y="296.8" shape-rendering="optimizeSpeed" width="6.24" height="6.24"/>
	<rect x="234.4" y="296.8" shape-rendering="optimizeSpeed" width="6.24" height="6.24"/>
	<rect x="240.64" y="296.8" shape-rendering="optimizeSpeed" width="6.24" height="6.24"/>
	<rect x="246.88" y="296.8" shape-rendering="optimizeSpeed" width="6.24" height="6.24"/>
	<rect x="259.36" y="296.8" shape-rendering="optimizeSpeed" width="6.24" height="6.24"/>
	<rect x="265.6" y="296.8" shape-rendering="optimizeSpeed" width="6.24" height="6.24"/>
	<rect x="271.84" y="296.8" shape-rendering="optimizeSpeed" width="6.24" height="6.24"/>
	<rect x="284.32" y="296.8" shape-rendering="optimizeSpeed" width="6.24" height="6.24"/>
	<rect x="296.8" y="296.8" shape-rendering="optimizeSpeed" width="6.24" height="6.24"/>
	<rect x="309.28" y="296.8" shape-rendering="optimizeSpeed" width="6.24" height="6.24"/>
	<rect x="328" y="296.8" shape-rendering="optimizeSpeed" width="6.24" height="6.24"/>
	<rect x="159.52" y="303.04" shape-rendering="optimizeSpeed" width="6.24" height="6.24"/>
	<rect x="196.96" y="303.04" shape-rendering="optimizeSpeed" width="6.24" height="6.24"/>
	<rect x="215.68" y="303.04" shape-rendering="optimizeSpeed" width="6.24" height="6.24"/>
	<rect x="228.16" y="303.04" shape-rendering="optimizeSpeed" width="6.24" height="6.24"/>
	<rect x="234.4" y="303.04" shape-rendering="optimizeSpeed" width="6.24" height="6.24"/>
	<rect x="240.64" y="303.04" shape-rendering="optimizeSpeed" width="6.24" height="6.24"/>
	<rect x="246.88" y="303.04" shape-rendering="optimizeSpeed" width="6.24" height="6.24"/>
	<rect x="284.32" y="303.04" shape-rendering="optimizeSpeed" width="6.24" height="6.24"/>
	<rect x="309.28" y="303.04" shape-rendering="optimizeSpeed" width="6.24" height="6.24"/>
	<rect x="321.76" y="303.04" shape-rendering="optimizeSpeed" width="6.24" height="6.24"/>
	<rect x="328" y="303.04" shape-rendering="optimizeSpeed" width="6.24" height="6.24"/>
	<rect x="159.52" y="309.28" shape-rendering="optimizeSpeed" width="6.24" height="6.24"/>
	<rect x="172" y="309.28" shape-rendering="optimizeSpeed" width="6.24" height="6.24"/>
	<rect x="178.24" y="309.28" shape-rendering="optimizeSpeed" width="6.24" height="6.24"/>
	<rect x="184.48" y="309.28" shape-rendering="optimizeSpeed" width="6.24" height="6.24"/>
	<rect x="196.96" y="309.28" shape-rendering="optimizeSpeed" width="6.24" height="6.24"/>
	<rect x="215.68" y="309.28" shape-rendering="optimizeSpeed" width="6.24" height="6.24"/>
	<rect x="221.92" y="309.28" shape-rendering="optimizeSpeed" width="6.24" height="6.24"/>
	<rect x="228.16" y="309.28" shape-rendering="optimizeSpeed" width="6.24" height="6.24"/>
	<rect x="234.4" y="309.28" shape-rendering="optimizeSpeed" width="6.24" height="6.24"/>
	<rect x="240.64" y="309.28" shape-rendering="optimizeSpeed" width="6.24" height="6.24"/>
	<rect x="259.36" y="309.28" shape-rendering="optimizeSpeed" width="6.24" height="6.24"/>
	<rect x="265.6" y="309.28" shape-rendering="optimizeSpeed" width="6.24" height="6.24"/>
	<rect x="284.32" y="309.28" shape-rendering="optimizeSpeed" width="6.24" height="6.24"/>
	<rect x="290.56" y="309.28" shape-rendering="optimizeSpeed" width="6.24" height="6.24"/>
	<rect x="296.8" y="309.28" shape-rendering="optimizeSpeed" width="6.24" height="6.24"/>
	<rect x="303.04" y="309.28" shape-rendering="optimizeSpeed" width="6.24" height="6.24"/>
	<rect x="309.28" y="309.28" shape-rendering="optimizeSpeed" width="6.24" height="6.24"/>
	<rect x="328" y="309.28" shape-rendering="optimizeSpeed" width="6.24" height="6.24"/>
	<rect x="159.52" y="315.52" shape-rendering="optimizeSpeed" width="6.24" height="6.24"/>
	<rect x="172" y="315.52" shape-rendering="optimizeSpeed" width="6.24" height="6.24"/>
	<rect x="178.24" y="315.52" shape-rendering="optimizeSpeed" width="6.24" height="6.24"/>
	<rect x="184.48" y="315.52" shape-rendering="optimizeSpeed" width="6.24" height="6.24"/>
	<rect x="196.96" y="315.52" shape-rendering="optimizeSpeed" width="6.24" height="6.24"/>
	<rect x="209.44" y="315.52" shape-rendering="optimizeSpeed" width="6.24" height="6.24"/>
	<rect x="215.68" y="315.52" shape-rendering="optimizeSpeed" width="6.24" height="6.24"/>
	<rect x="228.16" y="315.52" shape-rendering="optimizeSpeed" width="6.24" height="6.24"/>
	<rect x="265.6" y="315.52" shape-rendering="optimizeSpeed" width="6.24" height="6.24"/>
	<rect x="271.84" y="315.52" shape-rendering="optimizeSpeed" width="6.24" height="6.24"/>
	<rect x="296.8" y="315.52" shape-rendering="optimizeSpeed" width="6.24" height="6.24"/>
	<rect x="303.04" y="315.52" shape-rendering="optimizeSpeed" width="6.24" height="6.24"/>
	<rect x="309.28" y="315.52" shape-rendering="optimizeSpeed" width="6.24" height="6.24"/>
	<rect x="328" y="315.52" shape-rendering="optimizeSpeed" width="6.24" height="6.24"/>
	<rect x="159.52" y="321.76" shape-rendering="optimizeSpeed" width="6.24" height="6.24"/>
	<rect x="172" y="321.76" shape-rendering="optimizeSpeed" width="6.24" height="6.24"/>
	<rect x="178.24" y="321.76" shape-rendering="optimizeSpeed" width="6.24" height="6.24"/>
	<rect x="184.48" y="321.76" shape-rendering="optimizeSpeed" width="6.24" height="6.24"/>
	<rect x="196.96" y="321.76" shape-rendering="optimizeSpeed" width="6.24" height="6.24"/>
	<rect x="221.92" y="321.76" shape-rendering="optimizeSpeed" width="6.24" height="6.24"/>
	<rect x="228.16" y="321.76" shape-rendering="optimizeSpeed" width="6.24" height="6.24"/>
	<rect x="234.4" y="321.76" shape-rendering="optimizeSpeed" width="6.24" height="6.24"/>
	<rect x="246.88" y="321.76" shape-rendering="optimizeSpeed" width="6.24" height="6.24"/>
	<rect x="271.84" y="321.76" shape-rendering="optimizeSpeed" width="6.24" height="6.24"/>
	<rect x="278.08" y="321.76" shape-rendering="optimizeSpeed" width="6.24" height="6.24"/>
	<rect x="309.28" y="321.76" shape-rendering="optimizeSpeed" width="6.24" height="6.24"/>
	<rect x="315.52" y="321.76" shape-rendering="optimizeSpeed" width="6.24" height="6.24"/>
	<rect x="321.76" y="321.76" shape-rendering="optimizeSpeed" width="6.24" height="6.24"/>
	<rect x="334.24" y="321.76" shape-rendering="optimizeSpeed" width="6.24" height="6.24"/>
	<rect x="159.52" y="328" shape-rendering="optimizeSpeed" width="6.24" height="6.24"/>
	<rect x="196.96" y="328" shape-rendering="optimizeSpeed" width="6.24" height="6.24"/>
	<rect x="209.44" y="328" shape-rendering="optimizeSpeed" width="6.24" height="6.24"/>
	<rect x="215.68" y="328" shape-rendering="optimizeSpeed" width="6.24" height="6.24"/>
	<rect x="234.4" y="328" shape-rendering="optimizeSpeed" width="6.24" height="6.24"/>
	<rect x="240.64" y="328" shape-rendering="optimizeSpeed" width="6.24" height="6.24"/>
	<rect x="253.12" y="328" shape-rendering="optimizeSpeed" width="6.24" height="6.24"/>
	<rect x="265.6" y="328" shape-rendering="optimizeSpeed" width="6.24" height="6.24"/>
	<rect x="278.08" y="328" shape-rendering="optimizeSpeed" width="6.24" height="6.24"/>
	<rect x="284.32" y="328" shape-rendering="optimizeSpeed" width="6.24" height="6.24"/>
	<rect x="296.8" y="328" shape-rendering="optimizeSpeed" width="6.24" height="6.24"/>
	<rect x="328" y="328" shape-rendering="optimizeSpeed" width="6.24" height="6.24"/>
	<rect x="159.52" y="334.24" shape-rendering="optimizeSpeed" width="6.24" height="6.24"/>
	<rect x="165.76" y="334.24" shape-rendering="optimizeSpeed" width="6.24" height="6.24"/>
	<rect x="172" y="334.24" shape-rendering="optimizeSpeed" width="6.24" height="6.24"/>
	<rect x="178.24" y="334.24" shape-rendering="optimizeSpeed" width="6.24" height="6.24"/>
	<rect x="184.48" y="334.24" shape-rendering="optimizeSpeed" width="6.24" height="6.24"/>
	<rect x="190.72" y="334.24" shape-rendering="optimizeSpeed" width="6.24" height="6.24"/>
	<rect x="196.96" y="334.24" shape-rendering="optimizeSpeed" width="6.24" height="6.24"/>
	<rect x="209.44" y="334.24" shape-rendering="optimizeSpeed" width="6.24" height="6.24"/>
	<rect x="221.92" y="334.24" shape-rendering="optimizeSpeed" width="6.24" height="6.24"/>
	<rect x="234.4" y="334.24" shape-rendering="optimizeSpeed" width="6.24" height="6.24"/>
	<rect x="253.12" y="334.24" shape-rendering="optimizeSpeed" width="6.24" height="6.24"/>
	<rect x="265.6" y="334.24" shape-rendering="optimizeSpeed" width="6.24" height="6.24"/>
	<rect x="284.32" y="334.24" shape-rendering="optimizeSpeed" width="6.24" height="6.24"/>
	<rect x="309.28" y="334.24" shape-rendering="optimizeSpeed" width="6.24" height="6.24"/>
	<rect x="315.52" y="334.24" shape-rendering="optimizeSpeed" width="6.24" height="6.24"/>
	<rect x="328" y="334.24" shape-rendering="optimizeSpeed" width="6.24" height="6.24"/>
</g>
</svg>
